PathFileType	4	(X/Y/Z)	s07c0001.trc
DataRate	CameraRate	NumFrames	NumMarkers	Units	OrigDataRate	OrigDataStartFrame	OrigNumFrames
200	200	4	49	mm	200	1000	2000
Frame#	Time	racr			lacr			c7			jug			rlel			rdr			llel			ldr			s2			lic			ric			lasi			rasi			rpsi			lpsi			rgt			lgt			rth1			rth2			rth3			rth4			rlfc			rmfc			rsh1			rsh2			rsh3			rsh4			rlmal			rmmal			rcal			rtoe			rmt5			rmt1			lth1			lth2			lth4			lth3			llfc			lmfc			lsh1			lsh2			lsh3			lsh4			llmal			lmmal			lcal			ltoe			lmt1			lmt5			
		X1	Y1	Z1	X2	Y2	Z2	X3	Y3	Z3	X4	Y4	Z4	X5	Y5	Z5	X6	Y6	Z6	X7	Y7	Z7	X8	Y8	Z8	X9	Y9	Z9	X10	Y10	Z10	X11	Y11	Z11	X12	Y12	Z12	X13	Y13	Z13	X14	Y14	Z14	X15	Y15	Z15	X16	Y16	Z16	X17	Y17	Z17	X18	Y18	Z18	X19	Y19	Z19	X20	Y20	Z20	X21	Y21	Z21	X22	Y22	Z22	X23	Y23	Z23	X24	Y24	Z24	X25	Y25	Z25	X26	Y26	Z26	X27	Y27	Z27	X28	Y28	Z28	X29	Y29	Z29	X30	Y30	Z30	X31	Y31	Z31	X32	Y32	Z32	X33	Y33	Z33	X34	Y34	Z34	X35	Y35	Z35	X36	Y36	Z36	X37	Y37	Z37	X38	Y38	Z38	X39	Y39	Z39	X40	Y40	Z40	X41	Y41	Z41	X42	Y42	Z42	X43	Y43	Z43	X44	Y44	Z44	X45	Y45	Z45	X46	Y46	Z46	X47	Y47	Z47	X48	Y48	Z48	X49	Y49	Z49	
1000	5.0000	167.827881	1569.446167	557.550354	196.177429	1569.276611	187.481949	134.811066	1607.903931	368.500854	258.262634	1518.196167	379.555786	235.263306	1225.403809	690.355835	385.841187	988.073853	803.218018	272.077271	1215.552856	89.695770	427.041138	977.357605	-11.940065	103.287483	1060.135132	361.395477	248.677856	1143.918091	225.583664	235.298828	1133.047974	529.673767	313.905701	1076.653198	259.075653	283.851349	1074.447144	522.052490	115.855576	1093.907471	418.064209	131.448517	1101.927490	306.083160	200.741547	976.503418	558.346069	233.440216	973.554871	208.376328	211.163345	847.807861	561.261414	235.218277	763.015625	553.952820	215.950058	679.901062	545.127014	271.522858	765.370300	546.367310	216.207565	538.270996	511.065369	225.551147	527.321350	415.626007	177.651657	400.306152	528.480835	196.154495	314.377411	509.173004	168.508926	232.253387	503.305023	219.293854	318.606689	476.769684	158.783096	91.427040	488.695618	200.738083	105.652321	411.080322	113.687782	41.110764	446.959503	395.139648	86.540802	505.224487	310.949615	36.425690	556.939636	327.979950	44.118587	449.568176	244.745865	856.086670	194.638474	268.708923	771.662537	202.141693	303.209778	772.942139	216.460800	246.462738	685.911438	210.186920	242.732239	531.189941	239.026169	237.192368	515.451965	326.827759	209.338318	395.883575	214.439316	226.518005	313.796051	235.899521	200.449875	226.372055	231.961090	236.759781	317.225616	275.945648	190.503952	90.620712	243.287659	224.742447	111.769157	324.493378	141.540558	37.380322	280.104919	422.982025	93.092857	249.151367	358.984497	47.762863	297.224030	345.581390	53.031574	192.432739	
1001	5.0050	167.848831	1569.450562	557.535278	196.203461	1569.269287	187.489273	134.850510	1607.911621	368.493927	258.299683	1518.181763	379.528931	235.285660	1225.411011	690.364197	385.872070	988.083740	803.231750	272.099823	1215.534546	89.716125	427.076355	977.327271	-11.928586	103.312996	1060.132568	361.380341	248.708618	1143.901123	225.566467	235.305588	1133.047363	529.666809	313.905731	1076.638672	259.061737	283.850464	1074.453491	522.070557	115.874229	1093.898315	418.048889	131.487549	1101.921387	306.064514	200.752197	976.495056	558.338623	233.440262	973.554810	208.376328	211.151657	847.808655	561.259888	235.225906	763.003235	553.952271	215.948074	679.896851	545.128357	271.522186	765.362549	546.371277	216.205719	538.255981	511.054108	225.540314	527.321045	415.607391	177.653366	400.300720	528.476685	196.161438	314.369843	509.153168	168.507629	232.254623	503.305847	219.288437	318.589417	476.792206	158.793381	91.424919	488.699188	200.741272	105.656639	411.083649	113.663170	41.126057	446.932373	395.149628	86.545410	505.221619	310.969849	36.436382	556.941467	327.991974	44.160862	449.569550	244.757767	856.084717	194.630722	268.727966	771.649353	202.152054	303.218811	772.939331	216.423737	246.462708	685.905396	210.168304	242.732315	531.217957	239.016724	237.239258	515.444580	326.884155	209.332581	395.878235	214.447128	226.538757	313.814178	235.915543	200.448212	226.373581	231.960968	236.738281	317.217896	275.945587	190.508698	90.606186	243.287369	224.747574	111.760406	324.493469	141.527039	37.361603	280.109192	422.977081	93.072754	249.161621	358.973907	47.763966	297.213409	345.586456	53.032944	192.429031	
1002	5.0100	167.887009	1569.459961	557.505005	196.243958	1569.258911	187.457825	134.885788	1607.907104	368.470947	258.309296	1518.167114	379.504517	235.327301	1225.412720	690.359558	385.884644	988.113464	803.258118	272.135406	1215.513550	89.699677	427.091919	977.306396	-11.939870	103.325516	1060.148071	361.369934	248.744766	1143.901367	225.571320	235.326721	1133.042114	529.653992	313.939270	1076.644165	259.076050	283.861115	1074.430542	522.055115	115.924309	1093.890625	418.034363	131.508362	1101.896606	306.099060	200.750656	976.500549	558.329651	233.462204	973.550598	208.375580	211.170502	847.803772	561.251099	235.220032	763.001099	553.956726	215.957718	679.896423	545.123230	271.509521	765.375977	546.393982	216.214127	538.257507	511.054413	225.552597	527.318604	415.604095	177.651733	400.301208	528.487183	196.144913	314.373688	509.169373	168.497757	232.266098	503.304260	219.285355	318.598389	476.780579	158.782516	91.427063	488.699615	200.723221	105.660561	411.072784	113.663170	41.126038	446.932373	395.143219	86.569229	505.217712	310.971954	36.436211	556.947571	327.983276	44.143005	449.548615	244.775085	856.075623	194.621750	268.721588	771.661865	202.096985	303.225006	772.936523	216.420105	246.486588	685.875244	210.185638	242.749939	531.205811	239.003723	237.228134	515.430115	326.876648	209.264053	395.784332	214.327194	226.526886	313.804321	235.888763	200.444992	226.364807	231.957169	236.741959	317.218079	275.931610	190.493591	90.625267	243.277344	224.742447	111.769157	324.493378	141.531586	37.362240	280.108978	422.982056	93.091293	249.149658	358.953949	47.748257	297.192383	345.586456	53.030731	192.417343	
1003	5.0150	167.941971	1569.456909	557.495361	196.272781	1569.236450	187.453552	134.911087	1607.913452	368.469543	258.355255	1518.154785	379.510071	235.361404	1225.446045	690.372009	385.908173	988.114990	803.269592	272.161896	1215.493164	89.697441	427.121826	977.277893	-11.933238	103.362297	1060.131836	361.366272	248.753525	1143.901001	225.569305	235.343079	1133.044800	529.652771	313.967285	1076.604736	259.084076	283.896240	1074.434692	522.040466	115.924843	1093.909180	418.031067	131.532913	1101.949463	306.045654	200.755096	976.494080	558.328613	233.476196	973.571289	208.368149	211.167404	847.808044	561.260193	235.220200	763.012268	553.983154	215.956802	679.897949	545.135986	271.512207	765.367859	546.379211	216.209427	538.257996	511.066925	225.561661	527.322632	415.621185	177.654572	400.305176	528.483643	196.147430	314.364532	509.162964	168.507874	232.260315	503.296661	219.286743	318.593719	476.783966	158.782196	91.426964	488.700562	200.739914	105.652420	411.075745	113.662216	41.118710	446.931793	395.154663	86.558159	505.229889	310.996918	36.414867	556.953552	327.966522	44.153316	449.571533	244.795563	856.084290	194.614853	268.740662	771.647339	202.119675	303.245209	772.923218	216.412308	246.506775	685.867859	210.169617	242.737732	531.219482	239.005554	237.226379	515.444397	326.889160	209.264511	395.783997	214.332565	226.523148	313.809296	235.902557	200.422516	226.388535	231.957764	236.738831	317.214508	275.947876	190.491562	90.616356	243.291611	224.742447	111.769157	324.493378	141.525467	37.360039	280.105927	422.982117	93.077576	249.153290	358.970551	47.761543	297.210571	345.586426	53.030724	192.432541	
